<svg xmlns="http://www.w3.org/2000/svg" viewBox="0 0 366.88 112.37">
  <defs>
    <style type="text/css">
      @import url('https://fonts.googleapis.com/css?family=Poppins:300,400,500,600,700');

      .cls-1 {
        font-size: 70.7px;
        stroke: #a6a6a6;
        stroke-width: 0.14px;
        font-family: Poppins, Helvetica, Arial, sans-serif;
        font-weight: 700;
      }

      .cls-1,
      .cls-3 {
        stroke-miterlimit: 10;
      }

      .cls-2 {
        isolation: isolate;
      }

      .cls-3 {
        stroke: #377dff;
        stroke-width: 1.5px;
      }
    </style>
  </defs>
  <title>Orvium logo</title>
  <g id="Layer_2" data-name="Layer 2">
    <g id="Layer_1-2" data-name="Layer 1">
      <text class="cls-1" transform="translate(95 75.19) scale(0.98 1)">Orvium</text>
      <g id="Logo" class="cls-2">
        <g id="Page-1">
          <path id="Fill-1" class="cls-3"
                d="M58.88,14.52a2.57,2.57,0,1,0,2.53,2.61h0A2.47,2.47,0,0,0,58.88,14.52Zm0,9.21A6.68,6.68,0,1,1,65.48,17v.08A6.58,6.58,0,0,1,58.88,23.73ZM22.37,71.58a2.57,2.57,0,1,0,2.52,2.61h0A2.56,2.56,0,0,0,22.37,71.58Zm0,9.29A6.69,6.69,0,1,1,29,74.1v.09A6.69,6.69,0,0,1,22.37,80.87ZM29,24.47V33.6L36.79,29ZM6.39,25.2h0a12.15,12.15,0,0,0,4.32,16.47l2.2,1.3L24.81,36V22.1l-2.2-1.3A11.8,11.8,0,0,0,6.39,25.2ZM56.84,40.77V49.9l7.83-4.57ZM17,45.33l7.82,4.57V40.77Zm12,6.93,11.9,6.93,11.9-6.93V38.32L40.87,31.4,29,38.32Zm16,9.37,7.83,4.57V57.07Zm11.9,6.93L59,69.87a11.85,11.85,0,0,0,16.22-4.32.08.08,0,0,1,.09-.08h0A12.23,12.23,0,0,0,70.94,49l-2.2-1.3-11.9,6.93V68.56Zm-16,21.19A15.75,15.75,0,0,1,29.62,85a2.08,2.08,0,0,1,0-2.94,2,2,0,0,1,2.85,0h0a11.6,11.6,0,0,0,8.4,3.51,12,12,0,0,0,11.9-12.07v-2.6L40.87,64l-5.14,3A2,2,0,0,1,33,66.28h0a2.12,2.12,0,0,1,.74-2.85l3.09-1.8L29,57.07v6a2,2,0,0,1-4.08,0V54.63L13,47.7,10.79,49a12,12,0,0,0-5.54,7.34,12.3,12.3,0,0,0,1.14,9.13A12.06,12.06,0,0,0,11,70a2,2,0,0,1,.81,2.77A2,2,0,0,1,9,73.53H9a14.63,14.63,0,0,1-6.11-6.11A16.47,16.47,0,0,1,8.76,45.25l.16-.08-.16-.08A16.29,16.29,0,0,1,2.89,23h0a15.9,15.9,0,0,1,21.68-6c.08,0,.08.08.16.08l.16.08v-.24a16,16,0,0,1,26.74-12,2.14,2.14,0,0,1,.16,2.93A2,2,0,0,1,48.94,8h0a11.75,11.75,0,0,0-8-3.09A12,12,0,0,0,29.05,17v2.61L41,26.51l6.44-3.75a2,2,0,0,1,2.77.73h0a2.12,2.12,0,0,1-.73,2.85L44.94,29l7.83,4.57V31.23a2,2,0,0,1,4.07,0V36L68.74,43l2.2-1.3a12,12,0,0,0,5.55-7.34,12.34,12.34,0,0,0-1.14-9.13,11.41,11.41,0,0,0-4.65-4.56,2,2,0,0,1-.81-2.77,2,2,0,0,1,2.77-.82h0a16.33,16.33,0,0,1,.4,28.28l-.16.09.16.08a16.39,16.39,0,0,1,5.87,22.08h0a15.9,15.9,0,0,1-21.68,6c-.08,0-.08-.09-.16-.09l-.16-.08v.25a16.19,16.19,0,0,1-16.06,16Z"/>
        </g>
      </g>
    </g>
  </g>
</svg>
